M48
;DRILL file {KiCad 4.0.7} date 07/24/18 09:10:18
;FORMAT={-:-/ absolute / metric / decimal}
FMAT,2
METRIC,TZ
T1C0.300
T2C0.800
T3C0.900
T4C1.001
T5C1.200
T6C1.854
T7C2.200
T8C3.200
%
G90
G05
M71
T1
X129.525Y-116.205
X130.11Y-111.37
X130.38Y-114.5
X130.39Y-105.74
X132.265Y-98.305
X132.96Y-92.19
X133.17Y-102.335
X133.445Y-111.025
X136.715Y-126.455
X136.855Y-119.575
X137.685Y-131.805
X138.8Y-97.195
X139.77Y-128.33
X141.58Y-90.38
X141.65Y-116.515
X144.985Y-114.08
X145.54Y-121.865
X145.75Y-125.55
X146.095Y-127.495
X151.865Y-128.4
X152.63Y-124.16
X152.91Y-120.27
X156.8Y-109.285
X156.8Y-112.345
T2
X118.15Y-134.005
X118.375Y-122.325
X133.39Y-134.005
X133.615Y-122.325
X143.295Y-102.9
X143.64Y-107.43
X143.64Y-109.93
X145.555Y-131.905
X145.555Y-134.405
X149.225Y-124.27
X149.225Y-134.43
X153.455Y-102.9
X154.87Y-89.21
X154.87Y-91.75
X154.87Y-94.29
X155.07Y-128.12
X155.07Y-130.66
X155.07Y-133.2
T3
X140.355Y-102.235
X140.355Y-109.855
X142.09Y-121.605
X142.09Y-134.305
T4
X120.375Y-93.96
X120.375Y-96.46
X156.32Y-105.99
X156.32Y-116.15
T5
X111.5Y-116.51
X111.54Y-105.255
X124.64Y-90.175
X124.66Y-97.35
X136.9Y-116.51
X136.94Y-105.255
X150.04Y-90.175
X150.06Y-97.35
T6
X109.715Y-125.825
X109.715Y-130.905
X122.415Y-128.365
X126.225Y-128.365
X130.035Y-128.365
T7
X116.11Y-88.86
X116.11Y-99.058
T8
X111.725Y-110.95
X153.765Y-110.95
T0
M30
