%FSLAX46Y46*%
G04 Gerber Fmt 4.6, Leading zero omitted, Abs format (unit mm)*
G04 Created by KiCad (PCBNEW 4.0.7) date 07/24/18 01:41:51*
%MOMM*%
%LPD*%
G01*
G04 APERTURE LIST*
%ADD10C,0.100000*%
%ADD11C,0.300000*%
%ADD12C,0.120000*%
%ADD13C,0.150000*%
G04 APERTURE END LIST*
D10*
D11*
X133483573Y-118848571D02*
X133840716Y-119848571D01*
X134197858Y-118848571D01*
X135555001Y-119848571D02*
X134697858Y-119848571D01*
X135126430Y-119848571D02*
X135126430Y-118348571D01*
X134983573Y-118562857D01*
X134840715Y-118705714D01*
X134697858Y-118777143D01*
X136197858Y-119705714D02*
X136269286Y-119777143D01*
X136197858Y-119848571D01*
X136126429Y-119777143D01*
X136197858Y-119705714D01*
X136197858Y-119848571D01*
X137197858Y-118348571D02*
X137340715Y-118348571D01*
X137483572Y-118420000D01*
X137555001Y-118491429D01*
X137626430Y-118634286D01*
X137697858Y-118920000D01*
X137697858Y-119277143D01*
X137626430Y-119562857D01*
X137555001Y-119705714D01*
X137483572Y-119777143D01*
X137340715Y-119848571D01*
X137197858Y-119848571D01*
X137055001Y-119777143D01*
X136983572Y-119705714D01*
X136912144Y-119562857D01*
X136840715Y-119277143D01*
X136840715Y-118920000D01*
X136912144Y-118634286D01*
X136983572Y-118491429D01*
X137055001Y-118420000D01*
X137197858Y-118348571D01*
X139412143Y-118491429D02*
X139483572Y-118420000D01*
X139626429Y-118348571D01*
X139983572Y-118348571D01*
X140126429Y-118420000D01*
X140197858Y-118491429D01*
X140269286Y-118634286D01*
X140269286Y-118777143D01*
X140197858Y-118991429D01*
X139340715Y-119848571D01*
X140269286Y-119848571D01*
X141197857Y-118348571D02*
X141340714Y-118348571D01*
X141483571Y-118420000D01*
X141555000Y-118491429D01*
X141626429Y-118634286D01*
X141697857Y-118920000D01*
X141697857Y-119277143D01*
X141626429Y-119562857D01*
X141555000Y-119705714D01*
X141483571Y-119777143D01*
X141340714Y-119848571D01*
X141197857Y-119848571D01*
X141055000Y-119777143D01*
X140983571Y-119705714D01*
X140912143Y-119562857D01*
X140840714Y-119277143D01*
X140840714Y-118920000D01*
X140912143Y-118634286D01*
X140983571Y-118491429D01*
X141055000Y-118420000D01*
X141197857Y-118348571D01*
X143126428Y-119848571D02*
X142269285Y-119848571D01*
X142697857Y-119848571D02*
X142697857Y-118348571D01*
X142555000Y-118562857D01*
X142412142Y-118705714D01*
X142269285Y-118777143D01*
X143983571Y-118991429D02*
X143840713Y-118920000D01*
X143769285Y-118848571D01*
X143697856Y-118705714D01*
X143697856Y-118634286D01*
X143769285Y-118491429D01*
X143840713Y-118420000D01*
X143983571Y-118348571D01*
X144269285Y-118348571D01*
X144412142Y-118420000D01*
X144483571Y-118491429D01*
X144554999Y-118634286D01*
X144554999Y-118705714D01*
X144483571Y-118848571D01*
X144412142Y-118920000D01*
X144269285Y-118991429D01*
X143983571Y-118991429D01*
X143840713Y-119062857D01*
X143769285Y-119134286D01*
X143697856Y-119277143D01*
X143697856Y-119562857D01*
X143769285Y-119705714D01*
X143840713Y-119777143D01*
X143983571Y-119848571D01*
X144269285Y-119848571D01*
X144412142Y-119777143D01*
X144483571Y-119705714D01*
X144554999Y-119562857D01*
X144554999Y-119277143D01*
X144483571Y-119134286D01*
X144412142Y-119062857D01*
X144269285Y-118991429D01*
X133315001Y-113193571D02*
X133672144Y-114693571D01*
X133957858Y-113622143D01*
X134243572Y-114693571D01*
X134600715Y-113193571D01*
X135957858Y-114693571D02*
X135100715Y-114693571D01*
X135529287Y-114693571D02*
X135529287Y-113193571D01*
X135386430Y-113407857D01*
X135243572Y-113550714D01*
X135100715Y-113622143D01*
X137029286Y-113193571D02*
X137029286Y-114265000D01*
X136957858Y-114479286D01*
X136815001Y-114622143D01*
X136600715Y-114693571D01*
X136457858Y-114693571D01*
X137743572Y-114693571D02*
X137743572Y-113193571D01*
X138100715Y-113193571D01*
X138315000Y-113265000D01*
X138457858Y-113407857D01*
X138529286Y-113550714D01*
X138600715Y-113836429D01*
X138600715Y-114050714D01*
X138529286Y-114336429D01*
X138457858Y-114479286D01*
X138315000Y-114622143D01*
X138100715Y-114693571D01*
X137743572Y-114693571D01*
X139172143Y-114622143D02*
X139386429Y-114693571D01*
X139743572Y-114693571D01*
X139886429Y-114622143D01*
X139957858Y-114550714D01*
X140029286Y-114407857D01*
X140029286Y-114265000D01*
X139957858Y-114122143D01*
X139886429Y-114050714D01*
X139743572Y-113979286D01*
X139457858Y-113907857D01*
X139315000Y-113836429D01*
X139243572Y-113765000D01*
X139172143Y-113622143D01*
X139172143Y-113479286D01*
X139243572Y-113336429D01*
X139315000Y-113265000D01*
X139457858Y-113193571D01*
X139815000Y-113193571D01*
X140029286Y-113265000D01*
X141815000Y-114122143D02*
X142957857Y-114122143D01*
X144815000Y-114693571D02*
X144815000Y-113193571D01*
X145672143Y-114693571D02*
X145029286Y-113836429D01*
X145672143Y-113193571D02*
X144815000Y-114050714D01*
X146315000Y-114693571D02*
X146315000Y-113193571D01*
X147672143Y-113193571D02*
X147386429Y-113193571D01*
X147243572Y-113265000D01*
X147172143Y-113336429D01*
X147029286Y-113550714D01*
X146957857Y-113836429D01*
X146957857Y-114407857D01*
X147029286Y-114550714D01*
X147100714Y-114622143D01*
X147243572Y-114693571D01*
X147529286Y-114693571D01*
X147672143Y-114622143D01*
X147743572Y-114550714D01*
X147815000Y-114407857D01*
X147815000Y-114050714D01*
X147743572Y-113907857D01*
X147672143Y-113836429D01*
X147529286Y-113765000D01*
X147243572Y-113765000D01*
X147100714Y-113836429D01*
X147029286Y-113907857D01*
X146957857Y-114050714D01*
X148457857Y-114693571D02*
X148457857Y-113193571D01*
X148815000Y-113193571D01*
X149029285Y-113265000D01*
X149172143Y-113407857D01*
X149243571Y-113550714D01*
X149315000Y-113836429D01*
X149315000Y-114050714D01*
X149243571Y-114336429D01*
X149172143Y-114479286D01*
X149029285Y-114622143D01*
X148815000Y-114693571D01*
X148457857Y-114693571D01*
X149886428Y-114622143D02*
X150100714Y-114693571D01*
X150457857Y-114693571D01*
X150600714Y-114622143D01*
X150672143Y-114550714D01*
X150743571Y-114407857D01*
X150743571Y-114265000D01*
X150672143Y-114122143D01*
X150600714Y-114050714D01*
X150457857Y-113979286D01*
X150172143Y-113907857D01*
X150029285Y-113836429D01*
X149957857Y-113765000D01*
X149886428Y-113622143D01*
X149886428Y-113479286D01*
X149957857Y-113336429D01*
X150029285Y-113265000D01*
X150172143Y-113193571D01*
X150529285Y-113193571D01*
X150743571Y-113265000D01*
X115938572Y-112395714D02*
X115867143Y-112467143D01*
X115652857Y-112538571D01*
X115510000Y-112538571D01*
X115295715Y-112467143D01*
X115152857Y-112324286D01*
X115081429Y-112181429D01*
X115010000Y-111895714D01*
X115010000Y-111681429D01*
X115081429Y-111395714D01*
X115152857Y-111252857D01*
X115295715Y-111110000D01*
X115510000Y-111038571D01*
X115652857Y-111038571D01*
X115867143Y-111110000D01*
X115938572Y-111181429D01*
X117224286Y-112538571D02*
X117224286Y-111752857D01*
X117152857Y-111610000D01*
X117010000Y-111538571D01*
X116724286Y-111538571D01*
X116581429Y-111610000D01*
X117224286Y-112467143D02*
X117081429Y-112538571D01*
X116724286Y-112538571D01*
X116581429Y-112467143D01*
X116510000Y-112324286D01*
X116510000Y-112181429D01*
X116581429Y-112038571D01*
X116724286Y-111967143D01*
X117081429Y-111967143D01*
X117224286Y-111895714D01*
X118152858Y-112538571D02*
X118010000Y-112467143D01*
X117938572Y-112324286D01*
X117938572Y-111038571D01*
X118724286Y-111967143D02*
X119867143Y-111967143D01*
X121581429Y-112681429D02*
X121438572Y-112610000D01*
X121295715Y-112467143D01*
X121081429Y-112252857D01*
X120938572Y-112181429D01*
X120795715Y-112181429D01*
X120867143Y-112538571D02*
X120724286Y-112467143D01*
X120581429Y-112324286D01*
X120510000Y-112038571D01*
X120510000Y-111538571D01*
X120581429Y-111252857D01*
X120724286Y-111110000D01*
X120867143Y-111038571D01*
X121152857Y-111038571D01*
X121295715Y-111110000D01*
X121438572Y-111252857D01*
X121510000Y-111538571D01*
X121510000Y-112038571D01*
X121438572Y-112324286D01*
X121295715Y-112467143D01*
X121152857Y-112538571D01*
X120867143Y-112538571D01*
X123010001Y-112538571D02*
X122510001Y-111824286D01*
X122152858Y-112538571D02*
X122152858Y-111038571D01*
X122724286Y-111038571D01*
X122867144Y-111110000D01*
X122938572Y-111181429D01*
X123010001Y-111324286D01*
X123010001Y-111538571D01*
X122938572Y-111681429D01*
X122867144Y-111752857D01*
X122724286Y-111824286D01*
X122152858Y-111824286D01*
X123652858Y-112538571D02*
X123652858Y-111038571D01*
X124224286Y-111038571D01*
X124367144Y-111110000D01*
X124438572Y-111181429D01*
X124510001Y-111324286D01*
X124510001Y-111538571D01*
X124438572Y-111681429D01*
X124367144Y-111752857D01*
X124224286Y-111824286D01*
X123652858Y-111824286D01*
X126295715Y-112538571D02*
X126295715Y-111038571D01*
X126867143Y-111038571D01*
X127010001Y-111110000D01*
X127081429Y-111181429D01*
X127152858Y-111324286D01*
X127152858Y-111538571D01*
X127081429Y-111681429D01*
X127010001Y-111752857D01*
X126867143Y-111824286D01*
X126295715Y-111824286D01*
X128010001Y-112538571D02*
X127867143Y-112467143D01*
X127795715Y-112395714D01*
X127724286Y-112252857D01*
X127724286Y-111824286D01*
X127795715Y-111681429D01*
X127867143Y-111610000D01*
X128010001Y-111538571D01*
X128224286Y-111538571D01*
X128367143Y-111610000D01*
X128438572Y-111681429D01*
X128510001Y-111824286D01*
X128510001Y-112252857D01*
X128438572Y-112395714D01*
X128367143Y-112467143D01*
X128224286Y-112538571D01*
X128010001Y-112538571D01*
X129010001Y-111538571D02*
X129295715Y-112538571D01*
X129581429Y-111824286D01*
X129867144Y-112538571D01*
X130152858Y-111538571D01*
X131295715Y-112467143D02*
X131152858Y-112538571D01*
X130867144Y-112538571D01*
X130724287Y-112467143D01*
X130652858Y-112324286D01*
X130652858Y-111752857D01*
X130724287Y-111610000D01*
X130867144Y-111538571D01*
X131152858Y-111538571D01*
X131295715Y-111610000D01*
X131367144Y-111752857D01*
X131367144Y-111895714D01*
X130652858Y-112038571D01*
X132010001Y-112538571D02*
X132010001Y-111538571D01*
X132010001Y-111824286D02*
X132081429Y-111681429D01*
X132152858Y-111610000D01*
X132295715Y-111538571D01*
X132438572Y-111538571D01*
X134081429Y-112538571D02*
X134081429Y-111038571D01*
X134581429Y-112110000D01*
X135081429Y-111038571D01*
X135081429Y-112538571D01*
X136367143Y-112467143D02*
X136224286Y-112538571D01*
X135938572Y-112538571D01*
X135795715Y-112467143D01*
X135724286Y-112324286D01*
X135724286Y-111752857D01*
X135795715Y-111610000D01*
X135938572Y-111538571D01*
X136224286Y-111538571D01*
X136367143Y-111610000D01*
X136438572Y-111752857D01*
X136438572Y-111895714D01*
X135724286Y-112038571D01*
X136867143Y-111538571D02*
X137438572Y-111538571D01*
X137081429Y-111038571D02*
X137081429Y-112324286D01*
X137152857Y-112467143D01*
X137295715Y-112538571D01*
X137438572Y-112538571D01*
X138510000Y-112467143D02*
X138367143Y-112538571D01*
X138081429Y-112538571D01*
X137938572Y-112467143D01*
X137867143Y-112324286D01*
X137867143Y-111752857D01*
X137938572Y-111610000D01*
X138081429Y-111538571D01*
X138367143Y-111538571D01*
X138510000Y-111610000D01*
X138581429Y-111752857D01*
X138581429Y-111895714D01*
X137867143Y-112038571D01*
X139224286Y-112538571D02*
X139224286Y-111538571D01*
X139224286Y-111824286D02*
X139295714Y-111681429D01*
X139367143Y-111610000D01*
X139510000Y-111538571D01*
X139652857Y-111538571D01*
X157052143Y-104081428D02*
X157052143Y-102938571D01*
X156433572Y-113977143D02*
X157576429Y-113977143D01*
X157005000Y-114548571D02*
X157005000Y-113405714D01*
D12*
X144750000Y-106920000D02*
X144750000Y-110440000D01*
X142530000Y-106920000D02*
X142530000Y-110440000D01*
X144750000Y-106920000D02*
X144636000Y-106920000D01*
X142644000Y-106920000D02*
X142530000Y-106920000D01*
X144750000Y-110440000D02*
X144636000Y-110440000D01*
X142644000Y-110440000D02*
X142530000Y-110440000D01*
X144445000Y-134915000D02*
X144445000Y-131395000D01*
X146665000Y-134915000D02*
X146665000Y-131395000D01*
X144445000Y-134915000D02*
X144559000Y-134915000D01*
X146551000Y-134915000D02*
X146665000Y-134915000D01*
X144445000Y-131395000D02*
X144559000Y-131395000D01*
X146551000Y-131395000D02*
X146665000Y-131395000D01*
X138945000Y-108705000D02*
X141765000Y-108705000D01*
X141765000Y-108705000D02*
X141765000Y-103385000D01*
X141765000Y-103385000D02*
X138945000Y-103385000D01*
X138945000Y-103385000D02*
X138945000Y-108705000D01*
X140355000Y-108775000D02*
X140355000Y-108705000D01*
X140355000Y-103315000D02*
X140355000Y-103385000D01*
X138945000Y-107865000D02*
X141765000Y-107865000D01*
X140680000Y-130615000D02*
X143500000Y-130615000D01*
X143500000Y-130615000D02*
X143500000Y-125295000D01*
X143500000Y-125295000D02*
X140680000Y-125295000D01*
X140680000Y-125295000D02*
X140680000Y-130615000D01*
X142090000Y-133225000D02*
X142090000Y-130615000D01*
X142090000Y-122685000D02*
X142090000Y-125295000D01*
X140680000Y-129775000D02*
X143500000Y-129775000D01*
D13*
X103572560Y-99459420D02*
X102772460Y-88461220D01*
X104372660Y-99459420D02*
X103572560Y-88461220D01*
X105172760Y-99459420D02*
X104372660Y-88461220D01*
X105972860Y-99459420D02*
X105172760Y-88461220D01*
X106772960Y-99459420D02*
X105972860Y-88461220D01*
X107573060Y-99459420D02*
X106772960Y-88461220D01*
X93674180Y-93960320D02*
G75*
G03X93674180Y-93960320I-1000760J0D01*
G01*
X100674420Y-89159720D02*
X88672920Y-89159720D01*
X88672920Y-89159720D02*
X88672920Y-98760920D01*
X88672920Y-98760920D02*
X100674420Y-98760920D01*
X108172500Y-88461220D02*
X100674420Y-88461220D01*
X100674420Y-88461220D02*
X100674420Y-99459420D01*
X100674420Y-99459420D02*
X108172500Y-99459420D01*
X122574300Y-101760660D02*
X122574300Y-86159980D01*
X122574300Y-86159980D02*
X108172500Y-86159980D01*
X108172500Y-86159980D02*
X108172500Y-101760660D01*
X108172500Y-101760660D02*
X122574300Y-101760660D01*
D12*
X132760000Y-119570000D02*
X132760000Y-113450000D01*
X132760000Y-113450000D02*
X115640000Y-113450000D01*
X115640000Y-113450000D02*
X115640000Y-119570000D01*
X115640000Y-119570000D02*
X132760000Y-119570000D01*
X135520000Y-116510000D02*
X132760000Y-116510000D01*
X112880000Y-116510000D02*
X115640000Y-116510000D01*
X132800000Y-108315000D02*
X132800000Y-102195000D01*
X132800000Y-102195000D02*
X115680000Y-102195000D01*
X115680000Y-102195000D02*
X115680000Y-108315000D01*
X115680000Y-108315000D02*
X132800000Y-108315000D01*
X135560000Y-105255000D02*
X132800000Y-105255000D01*
X112920000Y-105255000D02*
X115680000Y-105255000D01*
X145900000Y-93235000D02*
X145900000Y-87115000D01*
X145900000Y-87115000D02*
X128780000Y-87115000D01*
X128780000Y-87115000D02*
X128780000Y-93235000D01*
X128780000Y-93235000D02*
X145900000Y-93235000D01*
X148660000Y-90175000D02*
X145900000Y-90175000D01*
X126020000Y-90175000D02*
X128780000Y-90175000D01*
X145920000Y-100410000D02*
X145920000Y-94290000D01*
X145920000Y-94290000D02*
X128800000Y-94290000D01*
X128800000Y-94290000D02*
X128800000Y-100410000D01*
X128800000Y-100410000D02*
X145920000Y-100410000D01*
X148680000Y-97350000D02*
X145920000Y-97350000D01*
X126040000Y-97350000D02*
X128800000Y-97350000D01*
X151585000Y-104210000D02*
X151585000Y-101590000D01*
X151585000Y-101590000D02*
X145165000Y-101590000D01*
X145165000Y-101590000D02*
X145165000Y-104210000D01*
X145165000Y-104210000D02*
X151585000Y-104210000D01*
X152475000Y-102900000D02*
X151585000Y-102900000D01*
X144275000Y-102900000D02*
X145165000Y-102900000D01*
X147915000Y-132560000D02*
X150535000Y-132560000D01*
X150535000Y-132560000D02*
X150535000Y-126140000D01*
X150535000Y-126140000D02*
X147915000Y-126140000D01*
X147915000Y-126140000D02*
X147915000Y-132560000D01*
X149225000Y-133450000D02*
X149225000Y-132560000D01*
X149225000Y-125250000D02*
X149225000Y-126140000D01*
X154865704Y-88295309D02*
G75*
G02X157175000Y-88255000I1154296J40309D01*
G01*
X157174052Y-88234879D02*
G75*
G02X155780000Y-89384000I-1154052J-20121D01*
G01*
X152400000Y-96575000D02*
X152400000Y-86925000D01*
X157351000Y-96575000D02*
X157351000Y-86925000D01*
X152400000Y-96575000D02*
X157351000Y-96575000D01*
X152400000Y-86925000D02*
X157351000Y-86925000D01*
X155286000Y-87379000D02*
X156896000Y-88990000D01*
X155145000Y-87519000D02*
X156755000Y-89131000D01*
X155074296Y-134114691D02*
G75*
G02X152765000Y-134155000I-1154296J-40309D01*
G01*
X152765948Y-134175121D02*
G75*
G02X154160000Y-133026000I1154052J20121D01*
G01*
X157540000Y-125835000D02*
X157540000Y-135485000D01*
X152589000Y-125835000D02*
X152589000Y-135485000D01*
X157540000Y-125835000D02*
X152589000Y-125835000D01*
X157540000Y-135485000D02*
X152589000Y-135485000D01*
X154654000Y-135031000D02*
X153044000Y-133420000D01*
X154795000Y-134891000D02*
X153185000Y-133279000D01*
X130330000Y-135665000D02*
X130330000Y-132345000D01*
X130330000Y-132345000D02*
X121210000Y-132345000D01*
X121210000Y-132345000D02*
X121210000Y-135665000D01*
X121210000Y-135665000D02*
X130330000Y-135665000D01*
X132410000Y-134005000D02*
X130330000Y-134005000D01*
X119130000Y-134005000D02*
X121210000Y-134005000D01*
X130555000Y-123985000D02*
X130555000Y-120665000D01*
X130555000Y-120665000D02*
X121435000Y-120665000D01*
X121435000Y-120665000D02*
X121435000Y-123985000D01*
X121435000Y-123985000D02*
X130555000Y-123985000D01*
X132635000Y-122325000D02*
X130555000Y-122325000D01*
X119355000Y-122325000D02*
X121435000Y-122325000D01*
D13*
X145082143Y-105936666D02*
X145129762Y-105984285D01*
X145177381Y-106127142D01*
X145177381Y-106222380D01*
X145129762Y-106365238D01*
X145034524Y-106460476D01*
X144939286Y-106508095D01*
X144748810Y-106555714D01*
X144605952Y-106555714D01*
X144415476Y-106508095D01*
X144320238Y-106460476D01*
X144225000Y-106365238D01*
X144177381Y-106222380D01*
X144177381Y-106127142D01*
X144225000Y-105984285D01*
X144272619Y-105936666D01*
X145177381Y-104984285D02*
X145177381Y-105555714D01*
X145177381Y-105270000D02*
X144177381Y-105270000D01*
X144320238Y-105365238D01*
X144415476Y-105460476D01*
X144463095Y-105555714D01*
X146057143Y-129591666D02*
X146104762Y-129639285D01*
X146152381Y-129782142D01*
X146152381Y-129877380D01*
X146104762Y-130020238D01*
X146009524Y-130115476D01*
X145914286Y-130163095D01*
X145723810Y-130210714D01*
X145580952Y-130210714D01*
X145390476Y-130163095D01*
X145295238Y-130115476D01*
X145200000Y-130020238D01*
X145152381Y-129877380D01*
X145152381Y-129782142D01*
X145200000Y-129639285D01*
X145247619Y-129591666D01*
X145247619Y-129210714D02*
X145200000Y-129163095D01*
X145152381Y-129067857D01*
X145152381Y-128829761D01*
X145200000Y-128734523D01*
X145247619Y-128686904D01*
X145342857Y-128639285D01*
X145438095Y-128639285D01*
X145580952Y-128686904D01*
X146152381Y-129258333D01*
X146152381Y-128639285D01*
X142847381Y-106053095D02*
X141847381Y-106053095D01*
X141847381Y-105815000D01*
X141895000Y-105672142D01*
X141990238Y-105576904D01*
X142085476Y-105529285D01*
X142275952Y-105481666D01*
X142418810Y-105481666D01*
X142609286Y-105529285D01*
X142704524Y-105576904D01*
X142799762Y-105672142D01*
X142847381Y-105815000D01*
X142847381Y-106053095D01*
X142847381Y-104529285D02*
X142847381Y-105100714D01*
X142847381Y-104815000D02*
X141847381Y-104815000D01*
X141990238Y-104910238D01*
X142085476Y-105005476D01*
X142133095Y-105100714D01*
X143837381Y-124638095D02*
X142837381Y-124638095D01*
X142837381Y-124400000D01*
X142885000Y-124257142D01*
X142980238Y-124161904D01*
X143075476Y-124114285D01*
X143265952Y-124066666D01*
X143408810Y-124066666D01*
X143599286Y-124114285D01*
X143694524Y-124161904D01*
X143789762Y-124257142D01*
X143837381Y-124400000D01*
X143837381Y-124638095D01*
X142932619Y-123685714D02*
X142885000Y-123638095D01*
X142837381Y-123542857D01*
X142837381Y-123304761D01*
X142885000Y-123209523D01*
X142932619Y-123161904D01*
X143027857Y-123114285D01*
X143123095Y-123114285D01*
X143265952Y-123161904D01*
X143837381Y-123733333D01*
X143837381Y-123114285D01*
X122937381Y-101558333D02*
X123651667Y-101558333D01*
X123794524Y-101605953D01*
X123889762Y-101701191D01*
X123937381Y-101844048D01*
X123937381Y-101939286D01*
X123937381Y-100558333D02*
X123937381Y-101129762D01*
X123937381Y-100844048D02*
X122937381Y-100844048D01*
X123080238Y-100939286D01*
X123175476Y-101034524D01*
X123223095Y-101129762D01*
X154822381Y-119299524D02*
X153822381Y-119299524D01*
X154536667Y-118966190D01*
X153822381Y-118632857D01*
X154822381Y-118632857D01*
X154822381Y-117632857D02*
X154822381Y-118204286D01*
X154822381Y-117918572D02*
X153822381Y-117918572D01*
X153965238Y-118013810D01*
X154060476Y-118109048D01*
X154108095Y-118204286D01*
X113623334Y-114902381D02*
X113290000Y-114426190D01*
X113051905Y-114902381D02*
X113051905Y-113902381D01*
X113432858Y-113902381D01*
X113528096Y-113950000D01*
X113575715Y-113997619D01*
X113623334Y-114092857D01*
X113623334Y-114235714D01*
X113575715Y-114330952D01*
X113528096Y-114378571D01*
X113432858Y-114426190D01*
X113051905Y-114426190D01*
X114575715Y-114902381D02*
X114004286Y-114902381D01*
X114290000Y-114902381D02*
X114290000Y-113902381D01*
X114194762Y-114045238D01*
X114099524Y-114140476D01*
X114004286Y-114188095D01*
X113703334Y-103457381D02*
X113370000Y-102981190D01*
X113131905Y-103457381D02*
X113131905Y-102457381D01*
X113512858Y-102457381D01*
X113608096Y-102505000D01*
X113655715Y-102552619D01*
X113703334Y-102647857D01*
X113703334Y-102790714D01*
X113655715Y-102885952D01*
X113608096Y-102933571D01*
X113512858Y-102981190D01*
X113131905Y-102981190D01*
X114084286Y-102552619D02*
X114131905Y-102505000D01*
X114227143Y-102457381D01*
X114465239Y-102457381D01*
X114560477Y-102505000D01*
X114608096Y-102552619D01*
X114655715Y-102647857D01*
X114655715Y-102743095D01*
X114608096Y-102885952D01*
X114036667Y-103457381D01*
X114655715Y-103457381D01*
X126878334Y-88197381D02*
X126545000Y-87721190D01*
X126306905Y-88197381D02*
X126306905Y-87197381D01*
X126687858Y-87197381D01*
X126783096Y-87245000D01*
X126830715Y-87292619D01*
X126878334Y-87387857D01*
X126878334Y-87530714D01*
X126830715Y-87625952D01*
X126783096Y-87673571D01*
X126687858Y-87721190D01*
X126306905Y-87721190D01*
X127211667Y-87197381D02*
X127830715Y-87197381D01*
X127497381Y-87578333D01*
X127640239Y-87578333D01*
X127735477Y-87625952D01*
X127783096Y-87673571D01*
X127830715Y-87768810D01*
X127830715Y-88006905D01*
X127783096Y-88102143D01*
X127735477Y-88149762D01*
X127640239Y-88197381D01*
X127354524Y-88197381D01*
X127259286Y-88149762D01*
X127211667Y-88102143D01*
X125163334Y-100132381D02*
X124830000Y-99656190D01*
X124591905Y-100132381D02*
X124591905Y-99132381D01*
X124972858Y-99132381D01*
X125068096Y-99180000D01*
X125115715Y-99227619D01*
X125163334Y-99322857D01*
X125163334Y-99465714D01*
X125115715Y-99560952D01*
X125068096Y-99608571D01*
X124972858Y-99656190D01*
X124591905Y-99656190D01*
X126020477Y-99465714D02*
X126020477Y-100132381D01*
X125782381Y-99084762D02*
X125544286Y-99799048D01*
X126163334Y-99799048D01*
X151823334Y-101687381D02*
X151490000Y-101211190D01*
X151251905Y-101687381D02*
X151251905Y-100687381D01*
X151632858Y-100687381D01*
X151728096Y-100735000D01*
X151775715Y-100782619D01*
X151823334Y-100877857D01*
X151823334Y-101020714D01*
X151775715Y-101115952D01*
X151728096Y-101163571D01*
X151632858Y-101211190D01*
X151251905Y-101211190D01*
X152728096Y-100687381D02*
X152251905Y-100687381D01*
X152204286Y-101163571D01*
X152251905Y-101115952D01*
X152347143Y-101068333D01*
X152585239Y-101068333D01*
X152680477Y-101115952D01*
X152728096Y-101163571D01*
X152775715Y-101258810D01*
X152775715Y-101496905D01*
X152728096Y-101592143D01*
X152680477Y-101639762D01*
X152585239Y-101687381D01*
X152347143Y-101687381D01*
X152251905Y-101639762D01*
X152204286Y-101592143D01*
X151297381Y-125151666D02*
X150821190Y-125485000D01*
X151297381Y-125723095D02*
X150297381Y-125723095D01*
X150297381Y-125342142D01*
X150345000Y-125246904D01*
X150392619Y-125199285D01*
X150487857Y-125151666D01*
X150630714Y-125151666D01*
X150725952Y-125199285D01*
X150773571Y-125246904D01*
X150821190Y-125342142D01*
X150821190Y-125723095D01*
X150725952Y-124580238D02*
X150678333Y-124675476D01*
X150630714Y-124723095D01*
X150535476Y-124770714D01*
X150487857Y-124770714D01*
X150392619Y-124723095D01*
X150345000Y-124675476D01*
X150297381Y-124580238D01*
X150297381Y-124389761D01*
X150345000Y-124294523D01*
X150392619Y-124246904D01*
X150487857Y-124199285D01*
X150535476Y-124199285D01*
X150630714Y-124246904D01*
X150678333Y-124294523D01*
X150725952Y-124389761D01*
X150725952Y-124580238D01*
X150773571Y-124675476D01*
X150821190Y-124723095D01*
X150916429Y-124770714D01*
X151106905Y-124770714D01*
X151202143Y-124723095D01*
X151249762Y-124675476D01*
X151297381Y-124580238D01*
X151297381Y-124389761D01*
X151249762Y-124294523D01*
X151202143Y-124246904D01*
X151106905Y-124199285D01*
X150916429Y-124199285D01*
X150821190Y-124246904D01*
X150773571Y-124294523D01*
X150725952Y-124389761D01*
X152127381Y-88540238D02*
X151651190Y-88873572D01*
X152127381Y-89111667D02*
X151127381Y-89111667D01*
X151127381Y-88730714D01*
X151175000Y-88635476D01*
X151222619Y-88587857D01*
X151317857Y-88540238D01*
X151460714Y-88540238D01*
X151555952Y-88587857D01*
X151603571Y-88635476D01*
X151651190Y-88730714D01*
X151651190Y-89111667D01*
X151127381Y-88254524D02*
X152127381Y-87921191D01*
X151127381Y-87587857D01*
X152127381Y-86730714D02*
X152127381Y-87302143D01*
X152127381Y-87016429D02*
X151127381Y-87016429D01*
X151270238Y-87111667D01*
X151365476Y-87206905D01*
X151413095Y-87302143D01*
X152222381Y-132005238D02*
X151746190Y-132338572D01*
X152222381Y-132576667D02*
X151222381Y-132576667D01*
X151222381Y-132195714D01*
X151270000Y-132100476D01*
X151317619Y-132052857D01*
X151412857Y-132005238D01*
X151555714Y-132005238D01*
X151650952Y-132052857D01*
X151698571Y-132100476D01*
X151746190Y-132195714D01*
X151746190Y-132576667D01*
X151222381Y-131719524D02*
X152222381Y-131386191D01*
X151222381Y-131052857D01*
X151317619Y-130767143D02*
X151270000Y-130719524D01*
X151222381Y-130624286D01*
X151222381Y-130386190D01*
X151270000Y-130290952D01*
X151317619Y-130243333D01*
X151412857Y-130195714D01*
X151508095Y-130195714D01*
X151650952Y-130243333D01*
X152222381Y-130814762D01*
X152222381Y-130195714D01*
X145443095Y-109477381D02*
X146014524Y-109477381D01*
X145728809Y-110477381D02*
X145728809Y-109477381D01*
X146347857Y-110477381D02*
X146347857Y-109477381D01*
X146728810Y-109477381D01*
X146824048Y-109525000D01*
X146871667Y-109572619D01*
X146919286Y-109667857D01*
X146919286Y-109810714D01*
X146871667Y-109905952D01*
X146824048Y-109953571D01*
X146728810Y-110001190D01*
X146347857Y-110001190D01*
X147871667Y-110477381D02*
X147300238Y-110477381D01*
X147585952Y-110477381D02*
X147585952Y-109477381D01*
X147490714Y-109620238D01*
X147395476Y-109715476D01*
X147300238Y-109763095D01*
X150163095Y-120307381D02*
X150734524Y-120307381D01*
X150448809Y-121307381D02*
X150448809Y-120307381D01*
X151067857Y-121307381D02*
X151067857Y-120307381D01*
X151448810Y-120307381D01*
X151544048Y-120355000D01*
X151591667Y-120402619D01*
X151639286Y-120497857D01*
X151639286Y-120640714D01*
X151591667Y-120735952D01*
X151544048Y-120783571D01*
X151448810Y-120831190D01*
X151067857Y-120831190D01*
X152020238Y-120402619D02*
X152067857Y-120355000D01*
X152163095Y-120307381D01*
X152401191Y-120307381D01*
X152496429Y-120355000D01*
X152544048Y-120402619D01*
X152591667Y-120497857D01*
X152591667Y-120593095D01*
X152544048Y-120735952D01*
X151972619Y-121307381D01*
X152591667Y-121307381D01*
X123036667Y-126234762D02*
X123179524Y-126282381D01*
X123417620Y-126282381D01*
X123512858Y-126234762D01*
X123560477Y-126187143D01*
X123608096Y-126091905D01*
X123608096Y-125996667D01*
X123560477Y-125901429D01*
X123512858Y-125853810D01*
X123417620Y-125806190D01*
X123227143Y-125758571D01*
X123131905Y-125710952D01*
X123084286Y-125663333D01*
X123036667Y-125568095D01*
X123036667Y-125472857D01*
X123084286Y-125377619D01*
X123131905Y-125330000D01*
X123227143Y-125282381D01*
X123465239Y-125282381D01*
X123608096Y-125330000D01*
X123941429Y-125282381D02*
X124179524Y-126282381D01*
X124370001Y-125568095D01*
X124560477Y-126282381D01*
X124798572Y-125282381D01*
X125703334Y-126282381D02*
X125131905Y-126282381D01*
X125417619Y-126282381D02*
X125417619Y-125282381D01*
X125322381Y-125425238D01*
X125227143Y-125520476D01*
X125131905Y-125568095D01*
X131383334Y-135547381D02*
X131050000Y-135071190D01*
X130811905Y-135547381D02*
X130811905Y-134547381D01*
X131192858Y-134547381D01*
X131288096Y-134595000D01*
X131335715Y-134642619D01*
X131383334Y-134737857D01*
X131383334Y-134880714D01*
X131335715Y-134975952D01*
X131288096Y-135023571D01*
X131192858Y-135071190D01*
X130811905Y-135071190D01*
X131716667Y-134547381D02*
X132383334Y-134547381D01*
X131954762Y-135547381D01*
X132188334Y-124447381D02*
X131855000Y-123971190D01*
X131616905Y-124447381D02*
X131616905Y-123447381D01*
X131997858Y-123447381D01*
X132093096Y-123495000D01*
X132140715Y-123542619D01*
X132188334Y-123637857D01*
X132188334Y-123780714D01*
X132140715Y-123875952D01*
X132093096Y-123923571D01*
X131997858Y-123971190D01*
X131616905Y-123971190D01*
X133045477Y-123447381D02*
X132855000Y-123447381D01*
X132759762Y-123495000D01*
X132712143Y-123542619D01*
X132616905Y-123685476D01*
X132569286Y-123875952D01*
X132569286Y-124256905D01*
X132616905Y-124352143D01*
X132664524Y-124399762D01*
X132759762Y-124447381D01*
X132950239Y-124447381D01*
X133045477Y-124399762D01*
X133093096Y-124352143D01*
X133140715Y-124256905D01*
X133140715Y-124018810D01*
X133093096Y-123923571D01*
X133045477Y-123875952D01*
X132950239Y-123828333D01*
X132759762Y-123828333D01*
X132664524Y-123875952D01*
X132616905Y-123923571D01*
X132569286Y-124018810D01*
M02*
